<?xml version="1.0" encoding="utf-8"?>
<!-- Generator: Adobe Illustrator 17.0.0, SVG Export Plug-In . SVG Version: 6.00 Build 0)  -->
<!DOCTYPE svg PUBLIC "-//W3C//DTD SVG 1.1//EN" "http://www.w3.org/Graphics/SVG/1.1/DTD/svg11.dtd">
<svg version="1.1" id="Layer_1" xmlns="http://www.w3.org/2000/svg" xmlns:xlink="http://www.w3.org/1999/xlink" x="0px" y="0px"
	 width="1388px" height="555px" viewBox="0 0 1388 555" enable-background="new 0 0 1388 555" xml:space="preserve">
<g>
	<defs>
		<rect id="SVGID_1_" width="1388" height="555"/>
	</defs>
	<clipPath id="SVGID_2_">
		<use xlink:href="#SVGID_1_"  overflow="visible"/>
	</clipPath>
	<linearGradient id="SVGID_3_" gradientUnits="userSpaceOnUse" x1="197.66" y1="252.4042" x2="462" y2="252.4042">
		<stop  offset="0" style="stop-color:#20E8FE"/>
		<stop  offset="1" style="stop-color:#006DFF"/>
	</linearGradient>
	<path clip-path="url(#SVGID_2_)" fill="url(#SVGID_3_)" d="M461.674,373.507l-88.928-146.472l-42.406-69.891
		c-21.343-35.171-72.373-35.171-93.708-0.009l-38.972,64.223l46.929,77.039l1.743,2.868l0,0l-0.387,0.581l-3.01,4.947
		l-40.531,66.714h88.146l-42.352-69.293l-1.743-2.878l0.001-0.001l0.387-0.581l36.649-60.43l80.787,133.182l0.326,0.537H462
		L461.674,373.507z"/>
</g>
<g>
	<path d="M499.949,344.672l66.847-161.923h28.68l66.16,161.923h-26.364l-18.74-47.42h-72.401l-18.976,47.42H499.949z
		 M551.991,277.128h56.672l-28.219-71.252L551.991,277.128z"/>
	<path d="M759.489,391.866v-58.301c-10.024,8.641-21.978,12.961-35.852,12.961c-10.956,0-20.98-2.701-30.073-8.104
		c-9.102-5.393-16.274-12.679-21.517-21.856c-5.243-9.177-7.859-19.465-7.859-30.882c0-11.408,2.654-21.668,7.982-30.76
		c5.318-9.102,12.528-16.349,21.62-21.752c9.102-5.393,19.201-8.095,30.308-8.095c6.626,0,12.989,1.045,19.079,3.125
		s11.606,4.97,16.547,8.678v-9.949h22.901v164.935H759.489z M726.639,326.393c6.786,0,12.989-1.224,18.627-3.699
		c5.629-2.466,10.363-6.015,14.222-10.636v-52.973c-3.859-4.32-8.594-7.746-14.222-10.297c-5.638-2.541-11.841-3.812-18.627-3.812
		c-7.398,0-14.109,1.77-20.124,5.318c-6.015,3.548-10.796,8.368-14.345,14.458c-3.549,6.09-5.318,12.989-5.318,20.707
		c0,7.709,1.77,14.646,5.318,20.811c3.548,6.175,8.33,11.069,14.345,14.693C712.53,324.586,719.241,326.393,726.639,326.393z"/>
	<path d="M855.477,346.987c-9.092,0-17.112-1.93-24.049-5.789c-6.946-3.85-12.34-9.29-16.199-16.302
		c-3.85-7.022-5.779-15.079-5.779-24.171v-73.794h22.901v69.859c0,9.252,2.654,16.575,7.982,21.969
		c5.318,5.403,12.453,8.104,21.395,8.104c6.325,0,11.954-1.355,16.886-4.047c4.932-2.701,8.942-6.513,12.029-11.455v-84.43h23.136
		v117.74h-23.136v-12.029C881.54,342.206,869.822,346.987,855.477,346.987z"/>
	<path d="M978.319,346.752c-8.49,0-15.964-1.506-22.439-4.509c-6.476-3.012-11.568-7.21-15.267-12.603
		c-3.699-5.403-5.553-11.643-5.553-18.74c0-11.107,4.236-19.851,12.726-26.251c8.481-6.4,20.124-9.601,34.93-9.601
		c11.558,0,22.279,2.231,32.153,6.702v-12.49c0-8.481-2.428-14.806-7.285-18.966c-4.866-4.16-12.001-6.25-21.404-6.25
		c-5.393,0-11.022,0.809-16.886,2.428c-5.864,1.628-12.415,4.132-19.663,7.521l-8.556-17.347c8.942-4.16,17.272-7.21,24.981-9.139
		c7.709-1.92,15.502-2.89,23.362-2.89c15.267,0,27.108,3.624,35.513,10.871c8.405,7.248,12.603,17.582,12.603,30.995v78.189h-22.665
		v-10.175c-5.243,4.16-10.871,7.248-16.886,9.252C991.967,345.745,985.407,346.752,978.319,346.752z M957.263,310.439
		c0,5.704,2.428,10.288,7.285,13.761c4.866,3.473,11.22,5.205,19.089,5.205c6.165,0,11.831-0.885,16.999-2.664
		c5.167-1.77,9.911-4.584,14.232-8.443v-19.889c-4.48-2.626-9.139-4.509-13.996-5.666c-4.857-1.158-10.297-1.741-16.312-1.741
		c-8.481,0-15.145,1.741-20.011,5.205C959.692,299.68,957.263,304.424,957.263,310.439z"/>
	<path d="M1064.132,344.672V182.749l23.136-4.396v166.318H1064.132z"/>
	<path d="M1126.123,207.965c-3.859,0-7.172-1.431-9.949-4.283c-2.777-2.852-4.16-6.203-4.16-10.062c0-4.01,1.384-7.361,4.16-10.062
		c2.777-2.701,6.09-4.047,9.949-4.047c4.01,0,7.398,1.346,10.175,4.047c2.777,2.701,4.16,6.052,4.16,10.062
		c0,3.859-1.384,7.21-4.16,10.062C1133.521,206.534,1130.133,207.965,1126.123,207.965z M1114.555,344.672v-117.74h23.136v117.74
		H1114.555z"/>
	<path d="M1205.47,346.987c-10.184,0-19.7-1.506-28.567-4.509c-8.876-3.012-16.547-7.295-23.023-12.839l12.726-15.267
		c6.015,4.782,12.217,8.443,18.618,10.984c6.401,2.541,12.914,3.812,19.55,3.812c8.33,0,15.116-1.619,20.359-4.857
		c5.243-3.238,7.859-7.473,7.859-12.716c0-4.32-1.544-7.709-4.621-10.184c-3.087-2.466-7.869-4.16-14.345-5.083l-21.282-3.012
		c-11.719-1.694-20.51-5.318-26.374-10.871c-5.855-5.553-8.782-12.952-8.782-22.204c0-7.097,1.92-13.3,5.779-18.627
		c3.85-5.318,9.252-9.478,16.189-12.49c6.946-3.003,15.041-4.509,24.294-4.509c8.481,0,16.651,1.233,24.52,3.699
		c7.859,2.475,15.418,6.325,22.665,11.568l-11.794,15.267c-6.476-4.311-12.763-7.473-18.853-9.488
		c-6.09-1.995-12.227-3.003-18.392-3.003c-7.097,0-12.801,1.506-17.112,4.509c-4.32,3.012-6.485,6.909-6.485,11.681
		c0,4.32,1.506,7.681,4.518,10.062c3.003,2.4,7.972,4.047,14.919,4.979l21.282,3.003c11.719,1.704,20.585,5.29,26.6,10.758
		c6.015,5.478,9.017,12.839,9.017,22.091c0,7.097-2.155,13.46-6.476,19.088c-4.32,5.629-10.175,10.062-17.573,13.3
		C1223.278,345.368,1214.873,346.987,1205.47,346.987z"/>
</g>
<linearGradient id="SVGID_4_" gradientUnits="userSpaceOnUse" x1="499.9494" y1="147.5947" x2="761.2504" y2="147.5947">
	<stop  offset="0" style="stop-color:#20E8FE"/>
	<stop  offset="1" style="stop-color:#006DFF"/>
</linearGradient>
<path display="none" fill="url(#SVGID_4_)" d="M760.929,267.305l-87.907-144.789l-41.917-69.088
	c-21.098-34.766-71.542-34.766-92.631-0.009l-38.525,63.486l46.389,76.152l1.722,2.836l-0.383,0.574l-2.975,4.89l-40.065,65.948
	h87.132l-41.865-68.497l-1.723-2.845l0,0l0,0l0.383-0.574l36.227-59.736l79.859,131.651l0.322,0.53h96.276L760.929,267.305z"/>
</svg>
