<?xml version="1.0" encoding="utf-8"?>
<!-- Generator: Adobe Illustrator 17.0.0, SVG Export Plug-In . SVG Version: 6.00 Build 0)  -->
<!DOCTYPE svg PUBLIC "-//W3C//DTD SVG 1.1//EN" "http://www.w3.org/Graphics/SVG/1.1/DTD/svg11.dtd">
<svg version="1.1" id="Layer_1" xmlns="http://www.w3.org/2000/svg" xmlns:xlink="http://www.w3.org/1999/xlink" x="0px" y="0px"
	 width="15.854px" height="15.854px" viewBox="1.718 0 15.854 15.854" enable-background="new 1.718 0 15.854 15.854"
	 xml:space="preserve">
<g opacity="0.5">
	<rect x="1.718" y="0" fill="#0C2050" width="15.854" height="15.854"/>
	<path fill="#FFFFFF" d="M5.501,5.302c0.013-0.131-0.037-0.26-0.134-0.348L4.372,3.756V3.577H7.46l2.387,5.234l2.098-5.234h2.944
		v0.179l-0.85,0.815c-0.073,0.056-0.11,0.148-0.094,0.239v5.99c-0.015,0.091,0.021,0.183,0.094,0.239l0.83,0.815v0.179h-4.177
		v-0.179l0.86-0.835c0.085-0.085,0.085-0.109,0.085-0.239V5.939l-2.392,6.074H8.922L6.138,5.939v4.071
		c-0.023,0.171,0.034,0.343,0.154,0.467l1.119,1.357v0.179H4.238v-0.179l1.119-1.357c0.12-0.124,0.173-0.297,0.144-0.467V5.302z"/>
</g>
</svg>
