<?xml version="1.0" encoding="utf-8"?>
<!-- Generator: Adobe Illustrator 17.0.0, SVG Export Plug-In . SVG Version: 6.00 Build 0)  -->
<!DOCTYPE svg PUBLIC "-//W3C//DTD SVG 1.1//EN" "http://www.w3.org/Graphics/SVG/1.1/DTD/svg11.dtd">
<svg version="1.1" id="Layer_1" xmlns="http://www.w3.org/2000/svg" xmlns:xlink="http://www.w3.org/1999/xlink" x="0px" y="0px"
	 width="21.732px" height="16.559px" viewBox="4.446 5.585 21.732 16.559" enable-background="new 4.446 5.585 21.732 16.559"
	 xml:space="preserve">
<path opacity="0.5" fill="#0C2050" d="M22.872,6.984c2.454,3.609,3.667,7.679,3.213,12.365c-0.002,0.02-0.012,0.038-0.029,0.05
	c-1.859,1.365-3.66,2.193-5.435,2.742c-0.014,0.004-0.029,0.004-0.042-0.001c-0.014-0.005-0.026-0.013-0.034-0.025
	c-0.41-0.571-0.783-1.172-1.109-1.804c-0.019-0.037-0.002-0.082,0.037-0.097c0.592-0.223,1.155-0.49,1.696-0.807
	c0.043-0.025,0.045-0.086,0.006-0.115c-0.115-0.085-0.229-0.175-0.338-0.265c-0.02-0.017-0.048-0.02-0.071-0.009
	c-3.515,1.623-7.365,1.623-10.922,0c-0.023-0.01-0.051-0.007-0.07,0.009c-0.109,0.09-0.223,0.178-0.337,0.264
	c-0.039,0.029-0.036,0.09,0.007,0.115c0.541,0.311,1.104,0.584,1.695,0.808c0.038,0.015,0.056,0.058,0.037,0.096
	c-0.319,0.633-0.692,1.234-1.11,1.805c-0.018,0.023-0.048,0.034-0.076,0.025c-1.767-0.549-3.568-1.378-5.427-2.742
	c-0.015-0.012-0.027-0.031-0.028-0.051c-0.379-4.053,0.393-8.157,3.21-12.365c0.007-0.011,0.017-0.02,0.029-0.025
	c1.386-0.636,2.871-1.104,4.424-1.372c0.028-0.004,0.056,0.009,0.071,0.034c0.192,0.34,0.411,0.775,0.559,1.131
	c1.636-0.25,3.298-0.25,4.968,0c0.148-0.348,0.36-0.791,0.551-1.131c0.007-0.012,0.017-0.022,0.03-0.028
	c0.013-0.006,0.027-0.008,0.041-0.005c1.553,0.268,3.038,0.736,4.423,1.372C22.856,6.963,22.866,6.972,22.872,6.984z M13.661,14.691
	c0.017-1.198-0.856-2.19-1.953-2.19c-1.088,0-1.953,0.983-1.953,2.19c0,1.207,0.882,2.19,1.953,2.19
	C12.796,16.88,13.661,15.897,13.661,14.691z M20.883,14.691c0.017-1.198-0.856-2.19-1.953-2.19c-1.088,0-1.953,0.983-1.953,2.19
	c0,1.207,0.882,2.19,1.953,2.19C20.026,16.88,20.883,15.897,20.883,14.691z"/>
</svg>
